<?xml version="1.0" encoding="UTF-8"?>
<svg width="236px" height="178px" viewBox="0 0 236 178" version="1.1" xmlns="http://www.w3.org/2000/svg" xmlns:xlink="http://www.w3.org/1999/xlink">
    <!-- Generator: Sketch 64 (93537) - https://sketch.com -->
    <title>Chip</title>
    <desc>Created with Sketch.</desc>
    <g id="Business-Cards" stroke="none" stroke-width="1" fill="none" fill-rule="evenodd">
        <g id="back-businesscard-bankify-2019-copy-2" transform="translate(-165.000000, -261.000000)" stroke="#A3B3BF">
            <g id="Chip" transform="translate(165.000000, 261.000000)">
                <rect id="Rectangle" stroke-width="5" fill="#EDEDED" x="2.5" y="2.5" width="231" height="173" rx="39"></rect>
                <path d="M160.334746,55 L75.6652538,55 C70.4367764,55 68.5126953,55.4736994 66.5937006,56.499989 C64.8288744,57.4438284 63.4438284,58.8288744 62.499989,60.5937006 C61.4736994,62.5126953 61,64.4367764 61,69.6652538 L61,101.334746 C61,106.563224 61.4736994,108.487305 62.499989,110.406299 C63.4438284,112.171126 64.8288744,113.556172 66.5937006,114.500011 C68.5126953,115.526301 70.4367764,116 75.6652538,116 L160.334746,116 C165.563224,116 167.487305,115.526301 169.406299,114.500011 C171.171126,113.556172 172.556172,112.171126 173.500011,110.406299 C174.526301,108.487305 175,106.563224 175,101.334746 L175,69.6652538 C175,64.4367764 174.526301,62.5126953 173.500011,60.5937006 C172.556172,58.8288744 171.171126,57.4438284 169.406299,56.499989 C167.487305,55.4736994 165.563224,55 160.334746,55 Z" id="Rectangle" stroke-width="4"></path>
                <line x1="177" y1="71.5" x2="231.583333" y2="71.5" id="Line" stroke-width="4" stroke-linecap="square"></line>
                <line x1="4" y1="71.5" x2="58.5833333" y2="71.5" id="Line-Copy-2" stroke-width="4" stroke-linecap="square"></line>
                <line x1="177" y1="103.5" x2="231.583333" y2="103.5" id="Line-Copy" stroke-width="4" stroke-linecap="square"></line>
                <line x1="4" y1="103.5" x2="58.5833333" y2="103.5" id="Line-Copy-3" stroke-width="4" stroke-linecap="square"></line>
            </g>
        </g>
    </g>
</svg>